<svg xmlns="http://www.w3.org/2000/svg" viewBox="0 0 64 64">
  <title>Pokémon Déksa</title>
  <defs>
    <mask id="nucleus"><rect width="64" height="64" fill="white"/><circle cx="32" cy="32" r="4" fill="black"/></mask>
  </defs>
  <g fill="#57a675" mask="url(#nucleus)">
    <path id="strand" d="M32 6C24 6 18 12 18 20c0 5 2 9 6 12l7-7c-3-1-4-3-4-6 0-3 2-5 5-5s5 2 5 5c0 4-3 7-8 10l6 7c7-5 11-10 11-17C46 12 40 6 32 6Z"/>
    <use href="#strand" transform="rotate(120 32 32)"/>
    <use href="#strand" transform="rotate(240 32 32)"/>
  </g>
</svg>
